<svg width="17" height="17" viewBox="0 0 17 17" fill="none" xmlns="http://www.w3.org/2000/svg">
<g id="alert-triangle">
<g id="Icon">
<path d="M4.4838 14.1667C3.38661 14.1667 2.4607 13.4416 2.16938 12.4495C2.04502 12.026 2.19782 11.5849 2.43154 11.2093L6.44774 3.96743C7.38869 2.45535 9.61131 2.45536 10.5523 3.96744L14.5685 11.2093C14.8022 11.5849 14.955 12.026 14.8306 12.4495C14.5393 13.4416 13.6134 14.1667 12.5162 14.1667H4.4838Z" fill="#FF0000"/>
<path d="M8.5 9.13756V5.96029M8.5 11.4926V11.5205M12.5162 14.1667H4.4838C3.38661 14.1667 2.4607 13.4416 2.16938 12.4495C2.04502 12.026 2.19782 11.5849 2.43154 11.2093L6.44774 3.96743C7.38869 2.45535 9.61131 2.45536 10.5523 3.96744L14.5685 11.2093C14.8022 11.5849 14.955 12.026 14.8306 12.4495C14.5393 13.4416 13.6134 14.1667 12.5162 14.1667Z" stroke="white" stroke-width="1.5" stroke-linecap="round" stroke-linejoin="round"/>
</g>
</g>
</svg>
