<svg width="1280" height="983" viewBox="0 0 1280 983" fill="none" xmlns="http://www.w3.org/2000/svg">
<g clip-path="url(#clip0_501_2292)" filter="url(#filter0_f_501_2292)">
<path d="M495.356 312.014C433.685 333.326 409.504 376.442 403.53 388.453C397.778 400.014 381.109 435.201 401.898 472.863C424.193 513.268 476.611 532.951 507.098 544.03C655.921 598.075 942.68 605.683 1042.21 500.464C1075.61 465.159 1101.23 403.078 1065.79 360.434C1048.55 339.701 1032.35 342.197 1000.25 312.828C951.189 267.955 970.854 245.529 929.845 211.885C921.574 205.081 871.042 165.201 791.496 165.919C739.649 166.401 682.304 184.07 656.063 215.067C629.141 246.879 655.762 268.148 627.541 288.645C596.42 311.232 556.505 290.874 495.356 312.003V312.014Z" fill="url(#paint0_linear_501_2292)"/>
</g>
<path d="M646.679 264.61C597.399 288.461 578.077 336.716 573.303 350.159C568.707 363.098 555.387 402.479 571.999 444.63C589.814 489.851 631.7 511.88 656.061 524.279C774.982 584.766 1004.12 593.28 1083.65 475.521C1110.34 436.008 1130.82 366.528 1102.49 318.8C1088.72 295.596 1075.78 298.39 1050.12 265.521C1010.92 215.3 1026.64 190.201 993.868 152.547C987.258 144.932 946.879 100.299 883.317 101.102C841.887 101.642 796.064 121.416 775.096 156.108C753.583 191.712 774.855 215.515 752.304 238.456C727.436 263.734 695.541 240.95 646.679 264.598V264.61Z" fill="white"/>
<g filter="url(#filter1_f_501_2292)">
<path d="M490.201 218.176C418.65 248.687 390.596 310.415 383.665 327.612C376.991 344.164 357.651 394.54 381.771 448.461C407.638 506.308 468.452 534.488 503.823 550.35C676.487 627.725 1009.18 638.616 1124.65 487.977C1163.41 437.431 1193.13 348.551 1152.01 287.497C1132.01 257.814 1113.22 261.389 1075.97 219.341C1019.06 155.097 1041.87 122.99 994.292 74.8226C984.696 65.0817 926.069 7.98592 833.781 9.0137C773.628 9.70401 707.096 34.9998 676.652 79.3786C645.418 124.923 676.303 155.373 643.561 184.719C607.454 217.056 561.145 187.91 490.201 218.16V218.176Z" fill="#020386"/>
</g>
<g clip-path="url(#clip1_501_2292)">
<path d="M770.463 180.741C770.463 180.741 744.243 165.432 709.219 161.439C674.195 157.445 627.344 174.746 613.428 206.692C599.511 238.637 618.672 299.189 627.263 329.133C635.854 359.077 643.127 414.308 636.513 442.924C629.9 471.54 627.922 550.056 713.844 550.056C799.767 550.056 843.615 504.793 867.837 492.16C892.059 479.527 974.908 470.202 1040.33 456.221C1105.76 442.25 1126.91 354.246 1114.35 308.074C1101.8 261.902 1068.75 222.644 992.09 225.31C915.428 227.975 807.252 204.016 770.463 180.72V180.741Z" fill="#FFB54A"/>
<path d="M871.803 174.082H772.816C765.433 174.082 759.448 180.109 759.448 187.543V412.827C759.448 420.261 765.433 426.287 772.816 426.287H871.803C879.186 426.287 885.172 420.261 885.172 412.827V187.543C885.172 180.109 879.186 174.082 871.803 174.082Z" fill="url(#paint1_linear_501_2292)"/>
<path d="M868.283 225.32H775.301C772.629 225.32 770.463 227.501 770.463 230.191V246.174C770.463 248.865 772.629 251.046 775.301 251.046H868.283C870.955 251.046 873.121 248.865 873.121 246.174V230.191C873.121 227.501 870.955 225.32 868.283 225.32Z" fill="url(#paint2_linear_501_2292)"/>
<path d="M810.772 231.09H864.966" stroke="#E5EEFF" stroke-miterlimit="10" stroke-linecap="round"/>
<path d="M810.772 235.747H864.966" stroke="#E5EEFF" stroke-miterlimit="10" stroke-linecap="round"/>
<path d="M810.772 241.293H864.966" stroke="#E5EEFF" stroke-miterlimit="10" stroke-linecap="round"/>
<path d="M810.772 246.838H833.908" stroke="#E5EEFF" stroke-miterlimit="10" stroke-linecap="round"/>
<path d="M798.524 239.707C799.476 233.783 795.478 228.203 789.594 227.244C783.71 226.286 778.168 230.312 777.217 236.236C776.265 242.16 780.263 247.74 786.147 248.698C792.031 249.657 797.572 245.631 798.524 239.707Z" fill="#E5EEFF"/>
<path d="M787.757 238.198C789.707 238.198 791.287 236.607 791.287 234.644C791.287 232.681 789.707 231.09 787.757 231.09C785.808 231.09 784.227 232.681 784.227 234.644C784.227 236.607 785.808 238.198 787.757 238.198Z" fill="#6341CA"/>
<path d="M787.869 248.84C791.074 248.84 793.945 247.43 795.922 245.194C794.117 242.682 791.186 241.037 787.869 241.037C784.552 241.037 781.621 242.682 779.815 245.184C781.793 247.42 784.664 248.83 787.869 248.83V248.84Z" fill="#6341CA"/>
<path d="M868.283 261.698H775.301C772.629 261.698 770.463 263.879 770.463 266.569V282.552C770.463 285.243 772.629 287.424 775.301 287.424H868.283C870.955 287.424 873.121 285.243 873.121 282.552V266.569C873.121 263.879 870.955 261.698 868.283 261.698Z" fill="url(#paint3_linear_501_2292)"/>
<path d="M810.772 267.468H864.966" stroke="#E5EEFF" stroke-miterlimit="10" stroke-linecap="round"/>
<path d="M810.772 272.125H864.966" stroke="#E5EEFF" stroke-miterlimit="10" stroke-linecap="round"/>
<path d="M810.772 277.671H864.966" stroke="#E5EEFF" stroke-miterlimit="10" stroke-linecap="round"/>
<path d="M810.772 283.216H833.908" stroke="#E5EEFF" stroke-miterlimit="10" stroke-linecap="round"/>
<path d="M787.869 285.208C793.829 285.208 798.661 280.343 798.661 274.341C798.661 268.34 793.829 263.475 787.869 263.475C781.908 263.475 777.076 268.34 777.076 274.341C777.076 280.343 781.908 285.208 787.869 285.208Z" fill="#E5EEFF"/>
<path d="M787.757 274.576C789.707 274.576 791.287 272.985 791.287 271.022C791.287 269.059 789.707 267.468 787.757 267.468C785.808 267.468 784.227 269.059 784.227 271.022C784.227 272.985 785.808 274.576 787.757 274.576Z" fill="#6341CA"/>
<path d="M787.869 285.218C791.074 285.218 793.944 283.809 795.922 281.572C794.117 279.06 791.185 277.415 787.869 277.415C784.552 277.415 781.62 279.06 779.815 281.562C781.793 283.798 784.663 285.208 787.869 285.208V285.218Z" fill="#6341CA"/>
<path d="M868.283 298.076H775.301C772.629 298.076 770.463 300.257 770.463 302.947V318.93C770.463 321.621 772.629 323.802 775.301 323.802H868.283C870.955 323.802 873.121 321.621 873.121 318.93V302.947C873.121 300.257 870.955 298.076 868.283 298.076Z" fill="url(#paint4_linear_501_2292)"/>
<path d="M810.772 303.846H864.966" stroke="#E5EEFF" stroke-miterlimit="10" stroke-linecap="round"/>
<path d="M810.772 308.503H864.966" stroke="#E5EEFF" stroke-miterlimit="10" stroke-linecap="round"/>
<path d="M810.772 314.049H864.966" stroke="#E5EEFF" stroke-miterlimit="10" stroke-linecap="round"/>
<path d="M810.772 319.594H833.908" stroke="#E5EEFF" stroke-miterlimit="10" stroke-linecap="round"/>
<path d="M787.869 321.586C793.829 321.586 798.661 316.721 798.661 310.719C798.661 304.718 793.829 299.853 787.869 299.853C781.908 299.853 777.076 304.718 777.076 310.719C777.076 316.721 781.908 321.586 787.869 321.586Z" fill="#E5EEFF"/>
<path d="M787.757 310.954C789.707 310.954 791.287 309.363 791.287 307.4C791.287 305.437 789.707 303.846 787.757 303.846C785.808 303.846 784.227 305.437 784.227 307.4C784.227 309.363 785.808 310.954 787.757 310.954Z" fill="#6341CA"/>
<path d="M787.869 321.596C791.074 321.596 793.944 320.187 795.922 317.95C794.117 315.438 791.185 313.793 787.869 313.793C784.552 313.793 781.62 315.438 779.815 317.94C781.793 320.176 784.663 321.586 787.869 321.586V321.596Z" fill="#6341CA"/>
<path d="M868.283 334.454H775.301C772.629 334.454 770.463 336.635 770.463 339.325V355.308C770.463 357.999 772.629 360.18 775.301 360.18H868.283C870.955 360.18 873.121 357.999 873.121 355.308V339.325C873.121 336.635 870.955 334.454 868.283 334.454Z" fill="url(#paint5_linear_501_2292)"/>
<path d="M810.772 340.224H864.966" stroke="#E5EEFF" stroke-miterlimit="10" stroke-linecap="round"/>
<path d="M810.772 344.881H864.966" stroke="#E5EEFF" stroke-miterlimit="10" stroke-linecap="round"/>
<path d="M810.772 350.427H864.966" stroke="#E5EEFF" stroke-miterlimit="10" stroke-linecap="round"/>
<path d="M810.772 355.972H833.908" stroke="#E5EEFF" stroke-miterlimit="10" stroke-linecap="round"/>
<path d="M791.975 357.124C797.488 354.842 800.119 348.492 797.853 342.942C795.586 337.391 789.28 334.742 783.767 337.024C778.255 339.306 775.623 345.655 777.89 351.206C780.156 356.757 786.462 359.406 791.975 357.124Z" fill="#E5EEFF"/>
<path d="M787.757 347.332C789.707 347.332 791.287 345.741 791.287 343.778C791.287 341.815 789.707 340.224 787.757 340.224C785.808 340.224 784.227 341.815 784.227 343.778C784.227 345.741 785.808 347.332 787.757 347.332Z" fill="#6341CA"/>
<path d="M787.869 357.974C791.074 357.974 793.944 356.565 795.922 354.328C794.117 351.816 791.185 350.171 787.869 350.171C784.552 350.171 781.62 351.816 779.815 354.318C781.793 356.554 784.663 357.964 787.869 357.964V357.974Z" fill="#6341CA"/>
<path d="M868.283 370.832H775.301C772.629 370.832 770.463 373.013 770.463 375.703V391.686C770.463 394.377 772.629 396.558 775.301 396.558H868.283C870.955 396.558 873.121 394.377 873.121 391.686V375.703C873.121 373.013 870.955 370.832 868.283 370.832Z" fill="url(#paint6_linear_501_2292)"/>
<path d="M810.772 376.602H864.966" stroke="#E5EEFF" stroke-miterlimit="10" stroke-linecap="round"/>
<path d="M810.772 381.259H864.966" stroke="#E5EEFF" stroke-miterlimit="10" stroke-linecap="round"/>
<path d="M810.772 386.805H864.966" stroke="#E5EEFF" stroke-miterlimit="10" stroke-linecap="round"/>
<path d="M810.772 392.35H833.908" stroke="#E5EEFF" stroke-miterlimit="10" stroke-linecap="round"/>
<path d="M787.869 394.342C793.829 394.342 798.661 389.477 798.661 383.475C798.661 377.474 793.829 372.609 787.869 372.609C781.908 372.609 777.076 377.474 777.076 383.475C777.076 389.477 781.908 394.342 787.869 394.342Z" fill="#E5EEFF"/>
<path d="M787.757 383.71C789.707 383.71 791.287 382.119 791.287 380.156C791.287 378.193 789.707 376.602 787.757 376.602C785.808 376.602 784.227 378.193 784.227 380.156C784.227 382.119 785.808 383.71 787.757 383.71Z" fill="#6341CA"/>
<path d="M787.869 394.352C791.074 394.352 793.944 392.942 795.922 390.706C794.117 388.194 791.185 386.549 787.869 386.549C784.552 386.549 781.62 388.194 779.815 390.696C781.793 392.932 784.663 394.342 787.869 394.342V394.352Z" fill="#6341CA"/>
<path d="M885.172 192.057V187.553C885.172 180.118 879.187 174.092 871.803 174.092H772.816C765.432 174.092 759.448 180.118 759.448 187.553V192.057H885.172Z" fill="#6341CA"/>
<path d="M765.138 192.057L843.24 426.287H859.986L782.361 192.057H765.138Z" fill="url(#paint7_linear_501_2292)"/>
<path d="M791.277 192.057L871.803 426.298C871.803 426.298 876.367 426.726 879.309 423.979L800.497 192.057H791.277Z" fill="url(#paint8_linear_501_2292)"/>
<path d="M980.433 233.646C980.433 233.646 991.672 210.351 1007.86 208.697C1024.05 207.032 1032.97 216.683 1038.26 225.997C1038.26 225.997 1047.84 199.382 1070.31 204.703C1092.78 210.024 1094.11 227.325 1094.11 227.325C1094.11 227.325 1101.38 221.34 1109.97 224.659C1118.56 227.989 1120.22 233.646 1120.22 233.646C1120.22 233.646 1134.09 229.99 1137.73 240.632H954C954 240.632 957.966 229.653 980.433 233.646Z" fill="url(#paint9_linear_501_2292)"/>
<path d="M1055.48 222.32C1056.59 213.159 1061.64 207.471 1066.42 204.09C1046.73 202.487 1038.26 226.007 1038.26 226.007C1032.97 216.693 1024.05 207.042 1007.86 208.706C991.672 210.371 980.433 233.656 980.433 233.656C957.966 229.663 954 240.642 954 240.642H1061.46C1057.57 235.74 1054.63 229.53 1055.5 222.32H1055.48Z" fill="url(#paint10_linear_501_2292)"/>
<path d="M691.377 479.19C691.377 479.19 668.241 476.524 662.632 457.232C657.012 437.93 668.575 419.302 668.575 419.302C668.575 419.302 652.387 408.19 657.337 384.303C662.297 360.415 679.479 348.394 679.479 348.394C679.479 348.394 672.866 319.155 696.337 315.499C719.808 311.843 712.201 348.394 712.201 348.394C712.201 348.394 723.105 353.756 726.411 375.06C729.718 396.354 721.502 410.662 721.502 410.662C721.502 410.662 729.637 424.97 727.192 444.936C724.758 464.902 716.167 477.208 691.377 479.21V479.19Z" fill="url(#paint11_linear_501_2292)"/>
<path d="M692.017 483.52V394.679" stroke="#6341CA" stroke-miterlimit="10"/>
<path d="M686.823 420.742C686.823 420.742 678.891 408.323 679.033 390.44C679.175 372.558 692.017 351.223 692.017 351.223C688.304 337.65 692.189 324.507 696.388 315.478C696.368 315.478 696.348 315.478 696.327 315.478C672.866 319.135 679.47 348.374 679.47 348.374C679.47 348.374 662.287 360.394 657.327 384.282C652.367 408.17 668.566 419.281 668.566 419.281C668.566 419.281 657.003 437.91 662.622 457.212C668.241 476.514 691.367 479.169 691.367 479.169C692.25 479.098 693.102 479.006 693.944 478.914C671.984 459.806 686.813 420.721 686.813 420.721L686.823 420.742Z" fill="url(#paint12_linear_501_2292)"/>
<path d="M985.913 463.115C985.913 463.115 951.984 456.905 954.632 426.298C957.279 395.69 969.167 386.376 966.529 365.521C963.882 344.667 969.177 306.072 993.409 306.072C1017.64 306.072 1014.56 334.25 1008.83 347.884C1003.1 361.528 1002.21 370.393 1008.39 384.589C1014.56 398.784 1025.14 421.406 1011.04 443.588C996.938 465.77 985.923 463.105 985.923 463.105L985.913 463.115Z" fill="url(#paint13_linear_501_2292)"/>
<path d="M977.626 457.232C976.744 439.595 989.96 412.755 986.258 399.183C982.556 385.61 980.71 377.715 986.258 344.891C989.686 324.598 997.699 313.64 1003.32 308.217C1000.69 306.859 997.436 306.072 993.409 306.072C969.177 306.072 963.892 344.667 966.529 365.521C969.177 386.376 957.279 395.69 954.632 426.298C952.755 448.01 969.268 457.436 979.036 461.093C978.194 460.051 977.697 458.785 977.616 457.242L977.626 457.232Z" fill="url(#paint14_linear_501_2292)"/>
<path d="M986.258 367.288V479.527" stroke="#6341CA" stroke-miterlimit="10"/>
<path d="M784.228 314.498C784.228 314.498 783.233 325.589 777.066 338.896C770.899 352.204 764.732 364.622 764.732 364.622C764.732 364.622 778.142 380.595 779.815 395.23C781.479 409.865 782.361 426.287 782.361 426.287L740.501 466.659C740.501 466.659 727.72 420.517 723.318 401C718.916 381.484 722.436 366.399 734.334 346.433C746.231 326.467 763.414 302.958 772.664 302.069C781.915 301.181 786.104 304.816 784.228 314.488V314.498Z" fill="#E5827C"/>
<path d="M725.146 549.355C725.146 549.355 741.819 480.415 740.5 466.659C739.182 452.902 782.361 426.287 782.361 426.287H871.803C871.803 426.287 867.391 465.331 817.162 487.513L810.118 527.641C810.118 527.641 769.888 549.355 725.146 549.355Z" fill="#E5827C"/>
<path d="M807.993 453.576C830.906 455.353 844.417 449.583 871.803 426.298H782.361C782.361 426.298 785.079 451.809 807.993 453.576Z" fill="#CE6363"/>
<path d="M892.515 483.857C892.515 483.857 892.069 457.649 890.304 449.534C888.539 441.419 874.004 433.728 866.954 421.757C859.905 409.796 848.007 370.481 848.007 355.108C848.007 339.734 848.889 323.494 859.905 324.34C870.92 325.196 876.651 373.904 888.549 376.039C900.447 378.173 901.329 344.78 898.246 324.311C895.162 303.832 880.82 280.766 873.892 265.806C866.964 250.855 879.603 242.307 885.181 246.792C890.76 251.278 893.397 258.97 893.397 258.97C893.397 258.97 913.227 272.219 921.159 277.766C929.091 283.324 949.803 296.563 954.641 302.121C959.49 307.678 971.388 326.898 977.108 354.675C982.839 382.452 978.427 415.777 972.706 431.16C966.975 446.544 966.093 446.967 966.975 455.092C967.858 463.216 967.656 469.618 967.656 469.618C967.656 469.618 933.065 470.686 892.515 483.857Z" fill="#E5827C"/>
<path d="M898.976 427.954C887.737 411.291 877.168 404.239 867.076 371.77C862.765 357.901 859.58 340.206 857.349 324.488C848.747 326.209 848.007 341.012 848.007 355.108C848.007 370.491 859.905 409.796 866.954 421.757C874.004 433.718 888.539 441.41 890.304 449.534C892.069 457.649 892.459 483.857 892.459 483.857C896.971 482.789 904.664 481.663 910.506 479.941C909.482 464.843 906.725 439.452 898.966 427.954H898.976Z" fill="#CE6363"/>
<path d="M898.236 324.311C900.893 341.957 900.599 369.183 892.85 375.006C899.169 371.888 906.898 361.481 908.227 340.157C909.88 313.56 899.97 291.773 890.05 276.242C883.731 266.347 878.061 255.596 874.775 249.094C871.823 252.547 870.444 258.389 873.882 265.815C880.81 280.766 895.152 303.842 898.236 324.321V324.311Z" fill="#CE6363"/>
<path d="M888.538 376.039C888.417 376.02 888.295 375.98 888.173 375.95C888.295 376 888.417 376.029 888.538 376.039Z" fill="#CE6363"/>
<path d="M652.823 525.443C667.304 525.443 679.043 513.624 679.043 499.043C679.043 484.463 667.304 472.643 652.823 472.643C638.343 472.643 626.604 484.463 626.604 499.043C626.604 513.624 638.343 525.443 652.823 525.443Z" fill="#FFDF9F"/>
<path d="M637.842 457.569C644.049 457.569 649.081 452.503 649.081 446.253C649.081 440.004 644.049 434.938 637.842 434.938C631.635 434.938 626.604 440.004 626.604 446.253C626.604 452.503 631.635 457.569 637.842 457.569Z" fill="#FFDF9F"/>
<path d="M667.805 256.254C674.012 256.254 679.044 251.188 679.044 244.939C679.044 238.689 674.012 233.623 667.805 233.623C661.598 233.623 656.566 238.689 656.566 244.939C656.566 251.188 661.598 256.254 667.805 256.254Z" fill="#FFDF9F"/>
<path d="M1071.88 335.111C1087.91 328.964 1095.95 310.897 1089.85 294.757C1083.74 278.617 1065.8 270.516 1049.77 276.663C1033.74 282.81 1025.69 300.878 1031.8 317.017C1037.9 333.157 1055.85 341.258 1071.88 335.111Z" fill="#FFDF9F"/>
<path d="M1070.95 263.914C1075.09 263.914 1078.44 260.54 1078.44 256.377C1078.44 252.214 1075.09 248.84 1070.95 248.84C1066.82 248.84 1063.47 252.214 1063.47 256.377C1063.47 260.54 1066.82 263.914 1070.95 263.914Z" fill="#FFDF9F"/>
<path d="M1105.11 380.994C1109.25 380.994 1112.6 377.619 1112.6 373.456C1112.6 369.294 1109.25 365.919 1105.11 365.919C1100.98 365.919 1097.63 369.294 1097.63 373.456C1097.63 377.619 1100.98 380.994 1105.11 380.994Z" fill="#FFDF9F"/>
<path d="M818.491 231.09L833.026 174.082V122.191C833.026 117.401 836.88 113.53 841.627 113.53H946.02C950.777 113.53 954.621 117.411 954.621 122.191V187.379C954.621 192.169 950.767 196.04 946.02 196.04H842.713L818.481 231.09H818.491Z" fill="url(#paint15_linear_501_2292)"/>
<path d="M931.282 131.168H857.593V180.741H931.282V131.168Z" fill="#E5EEFF"/>
<path d="M894.432 155.954L857.593 131.168H931.282L894.432 155.954Z" fill="url(#paint16_linear_501_2292)"/>
<path d="M952.902 130.429C960.618 127.873 964.815 119.503 962.276 111.734C959.738 103.965 951.425 99.739 943.709 102.295C935.994 104.851 931.796 113.22 934.335 120.989C936.873 128.758 945.186 132.984 952.902 130.429Z" fill="#BC4D88"/>
<path d="M947.947 111.386H947.907L945.371 112.764L944.985 111.253L948.17 109.537H949.854V124.213H947.947V111.386Z" fill="white"/>
<path d="M558.878 269.909C563.382 269.909 567.033 266.233 567.033 261.698C567.033 257.163 563.382 253.487 558.878 253.487C554.374 253.487 550.723 257.163 550.723 261.698C550.723 266.233 554.374 269.909 558.878 269.909Z" stroke="url(#paint17_linear_501_2292)" stroke-miterlimit="10"/>
<path d="M1014.96 156.598C1019.47 156.598 1023.12 152.922 1023.12 148.387C1023.12 143.852 1019.47 140.176 1014.96 140.176C1010.46 140.176 1006.81 143.852 1006.81 148.387C1006.81 152.922 1010.46 156.598 1014.96 156.598Z" stroke="url(#paint18_linear_501_2292)" stroke-miterlimit="10"/>
<path d="M555.331 435.422C559.835 435.422 563.486 431.746 563.486 427.211C563.486 422.676 559.835 419 555.331 419C550.827 419 547.176 422.676 547.176 427.211C547.176 431.746 550.827 435.422 555.331 435.422Z" stroke="url(#paint19_linear_501_2292)" stroke-miterlimit="10"/>
<path d="M609.151 331.921L597.231 324.992L590.349 336.994L602.269 343.923L609.151 331.921Z" stroke="url(#paint20_linear_501_2292)" stroke-miterlimit="10"/>
<path d="M590.091 531.929L578.171 525L571.289 537.002L583.209 543.931L590.091 531.929Z" stroke="url(#paint21_linear_501_2292)" stroke-miterlimit="10"/>
<path d="M998.587 513.631L986.667 506.702L979.785 518.704L991.705 525.633L998.587 513.631Z" stroke="url(#paint22_linear_501_2292)" stroke-miterlimit="10"/>
<path d="M547.173 348.435V359.526C547.173 360.354 547.873 361.058 548.695 361.058C549.516 361.058 550.216 360.354 550.216 359.526V348.435C550.216 347.608 549.516 346.903 548.695 346.903C547.873 346.903 547.173 347.608 547.173 348.435Z" fill="url(#paint23_linear_501_2292)"/>
<path d="M543.187 355.513H554.202C555.024 355.513 555.724 354.808 555.724 353.981C555.724 353.153 555.024 352.449 554.202 352.449H543.187C542.365 352.449 541.665 353.153 541.665 353.981C541.665 354.808 542.365 355.513 543.187 355.513Z" fill="url(#paint24_linear_501_2292)"/>
<path d="M1096.79 445.532V456.623C1096.79 457.45 1097.49 458.155 1098.31 458.155C1099.13 458.155 1099.83 457.45 1099.83 456.623V445.532C1099.83 444.705 1099.13 444 1098.31 444C1097.49 444 1096.79 444.705 1096.79 445.532Z" fill="url(#paint25_linear_501_2292)"/>
<path d="M1092.81 452.609H1103.82C1104.64 452.609 1105.34 451.905 1105.34 451.077C1105.34 450.25 1104.64 449.546 1103.82 449.546H1092.81C1091.98 449.546 1091.28 450.25 1091.28 451.077C1091.28 451.905 1091.98 452.609 1092.81 452.609Z" fill="url(#paint26_linear_501_2292)"/>
<path d="M910.813 510.625V521.716C910.813 522.543 911.513 523.248 912.335 523.248C913.156 523.248 913.856 522.543 913.856 521.716V510.625C913.856 509.797 913.156 509.093 912.335 509.093C911.513 509.093 910.813 509.797 910.813 510.625Z" fill="url(#paint27_linear_501_2292)"/>
<path d="M906.827 517.702H917.843C918.664 517.702 919.364 516.997 919.364 516.17C919.364 515.343 918.664 514.638 917.843 514.638H906.827C906.006 514.638 905.306 515.343 905.306 516.17C905.306 516.997 906.006 517.702 906.827 517.702Z" fill="url(#paint28_linear_501_2292)"/>
<path d="M768.942 138.011V149.102C768.942 149.929 769.642 150.634 770.463 150.634C771.285 150.634 771.985 149.929 771.985 149.102V138.011C771.985 137.183 771.285 136.479 770.463 136.479C769.642 136.479 768.942 137.183 768.942 138.011Z" fill="url(#paint29_linear_501_2292)"/>
<path d="M764.956 145.088H775.971C776.793 145.088 777.492 144.383 777.492 143.556C777.492 142.729 776.793 142.024 775.971 142.024H764.956C764.134 142.024 763.434 142.729 763.434 143.556C763.434 144.383 764.134 145.088 764.956 145.088Z" fill="url(#paint30_linear_501_2292)"/>
<path d="M1131.45 317.374V328.465C1131.45 329.292 1132.15 329.997 1132.97 329.997C1133.8 329.997 1134.5 329.292 1134.5 328.465V317.374C1134.5 316.546 1133.8 315.842 1132.97 315.842C1132.15 315.842 1131.45 316.546 1131.45 317.374Z" fill="url(#paint31_linear_501_2292)"/>
<path d="M1127.47 324.451H1138.48C1139.3 324.451 1140 323.746 1140 322.919C1140 322.092 1139.3 321.387 1138.48 321.387H1127.47C1126.65 321.387 1125.95 322.092 1125.95 322.919C1125.95 323.746 1126.65 324.451 1127.47 324.451Z" fill="url(#paint32_linear_501_2292)"/>
<path d="M555.338 194.263H742.813C742.813 194.263 735.591 178.954 718.825 181.619C718.825 181.619 708.012 161.653 691.489 166.984C691.489 166.984 678.273 144.363 659.762 149.02C641.26 153.677 635.306 166.984 635.306 166.984C635.306 166.984 609.756 155.893 594.988 178.964C594.988 178.964 582.207 173.194 575.158 187.175C575.158 187.175 561.941 183.406 555.328 194.273L555.338 194.263Z" fill="url(#paint33_linear_501_2292)"/>
<path d="M625.143 176.707C631.31 169.568 649.081 171.325 649.081 171.325C646.981 163.175 650.146 156.108 654.284 150.777C640.064 156.363 635.307 166.984 635.307 166.984C635.307 166.984 609.756 155.893 594.988 178.964C594.988 178.964 582.207 173.194 575.158 187.175C575.158 187.175 561.941 183.406 555.328 194.273H620.224C618.479 188.298 620.853 181.66 625.123 176.717L625.143 176.707Z" fill="url(#paint34_linear_501_2292)"/>
</g>
<defs>
<filter id="filter0_f_501_2292" x="-8.24316" y="-234.081" width="1491.11" height="1216.83" filterUnits="userSpaceOnUse" color-interpolation-filters="sRGB">
<feFlood flood-opacity="0" result="BackgroundImageFix"/>
<feBlend mode="normal" in="SourceGraphic" in2="BackgroundImageFix" result="shape"/>
<feGaussianBlur stdDeviation="200" result="effect1_foregroundBlur_501_2292"/>
</filter>
<filter id="filter1_f_501_2292" x="120" y="-241" width="1301.82" height="1096.78" filterUnits="userSpaceOnUse" color-interpolation-filters="sRGB">
<feFlood flood-opacity="0" result="BackgroundImageFix"/>
<feBlend mode="normal" in="SourceGraphic" in2="BackgroundImageFix" result="shape"/>
<feGaussianBlur stdDeviation="125" result="effect1_foregroundBlur_501_2292"/>
</filter>
<linearGradient id="paint0_linear_501_2292" x1="737.305" y1="165.909" x2="737.305" y2="582.745" gradientUnits="userSpaceOnUse">
<stop stop-color="#9FBFFF"/>
<stop offset="1" stop-color="#DB9FFF"/>
</linearGradient>
<linearGradient id="paint1_linear_501_2292" x1="822.305" y1="198.705" x2="822.305" y2="396.343" gradientUnits="userSpaceOnUse">
<stop stop-color="#C4A0F6"/>
<stop offset="1" stop-color="#877EFA"/>
</linearGradient>
<linearGradient id="paint2_linear_501_2292" x1="770.463" y1="238.188" x2="873.121" y2="238.188" gradientUnits="userSpaceOnUse">
<stop stop-color="#A0C7FF"/>
<stop offset="1" stop-color="#BEB3FE"/>
</linearGradient>
<linearGradient id="paint3_linear_501_2292" x1="541.665" y1="274.566" x2="542.679" y2="274.566" gradientUnits="userSpaceOnUse">
<stop stop-color="#A0C7FF"/>
<stop offset="1" stop-color="#BEB3FE"/>
</linearGradient>
<linearGradient id="paint4_linear_501_2292" x1="541.665" y1="310.944" x2="542.679" y2="310.944" gradientUnits="userSpaceOnUse">
<stop stop-color="#A0C7FF"/>
<stop offset="1" stop-color="#BEB3FE"/>
</linearGradient>
<linearGradient id="paint5_linear_501_2292" x1="541.665" y1="347.322" x2="542.679" y2="347.322" gradientUnits="userSpaceOnUse">
<stop stop-color="#A0C7FF"/>
<stop offset="1" stop-color="#BEB3FE"/>
</linearGradient>
<linearGradient id="paint6_linear_501_2292" x1="541.665" y1="383.7" x2="542.679" y2="383.7" gradientUnits="userSpaceOnUse">
<stop stop-color="#A0C7FF"/>
<stop offset="1" stop-color="#BEB3FE"/>
</linearGradient>
<linearGradient id="paint7_linear_501_2292" x1="812.557" y1="214.923" x2="812.557" y2="398.478" gradientUnits="userSpaceOnUse">
<stop stop-color="white" stop-opacity="0.7"/>
<stop offset="1" stop-color="#877EFA" stop-opacity="0"/>
</linearGradient>
<linearGradient id="paint8_linear_501_2292" x1="835.298" y1="214.923" x2="835.298" y2="398.498" gradientUnits="userSpaceOnUse">
<stop stop-color="white" stop-opacity="0.7"/>
<stop offset="1" stop-color="#877EFA" stop-opacity="0"/>
</linearGradient>
<linearGradient id="paint9_linear_501_2292" x1="953.99" y1="222.32" x2="1137.72" y2="222.32" gradientUnits="userSpaceOnUse">
<stop stop-color="#C4A0F6"/>
<stop offset="1" stop-color="#877EFA"/>
</linearGradient>
<linearGradient id="paint10_linear_501_2292" x1="556.522" y1="222.32" x2="1066.42" y2="222.32" gradientUnits="userSpaceOnUse">
<stop stop-color="#C4A0F6"/>
<stop offset="1" stop-color="#877EFA"/>
</linearGradient>
<linearGradient id="paint11_linear_501_2292" x1="692.016" y1="360.415" x2="692.016" y2="470.529" gradientUnits="userSpaceOnUse">
<stop stop-color="#7A74F6"/>
<stop offset="1" stop-color="#7752D3"/>
</linearGradient>
<linearGradient id="paint12_linear_501_2292" x1="665.249" y1="395.823" x2="677.807" y2="396.477" gradientUnits="userSpaceOnUse">
<stop stop-color="#7A74F6"/>
<stop offset="1" stop-color="#7752D3"/>
</linearGradient>
<linearGradient id="paint13_linear_501_2292" x1="954.49" y1="384.64" x2="1018.03" y2="384.64" gradientUnits="userSpaceOnUse">
<stop stop-color="#7A74F6"/>
<stop offset="1" stop-color="#7752D3"/>
</linearGradient>
<linearGradient id="paint14_linear_501_2292" x1="949.053" y1="367.513" x2="976.42" y2="378.474" gradientUnits="userSpaceOnUse">
<stop stop-color="#7A74F6"/>
<stop offset="1" stop-color="#7752D3"/>
</linearGradient>
<linearGradient id="paint15_linear_501_2292" x1="818.491" y1="172.305" x2="954.632" y2="172.305" gradientUnits="userSpaceOnUse">
<stop stop-color="#A0C7FF"/>
<stop offset="1" stop-color="#BEB3FE"/>
</linearGradient>
<linearGradient id="paint16_linear_501_2292" x1="857.593" y1="143.556" x2="931.282" y2="143.556" gradientUnits="userSpaceOnUse">
<stop stop-color="#C4A0F6"/>
<stop offset="1" stop-color="#877EFA"/>
</linearGradient>
<linearGradient id="paint17_linear_501_2292" x1="550.216" y1="261.698" x2="567.53" y2="261.698" gradientUnits="userSpaceOnUse">
<stop stop-color="#C4A0F6"/>
<stop offset="1" stop-color="#877EFA"/>
</linearGradient>
<linearGradient id="paint18_linear_501_2292" x1="1006.31" y1="148.387" x2="1023.63" y2="148.387" gradientUnits="userSpaceOnUse">
<stop stop-color="#C4A0F6"/>
<stop offset="1" stop-color="#877EFA"/>
</linearGradient>
<linearGradient id="paint19_linear_501_2292" x1="546.669" y1="427.211" x2="563.983" y2="427.211" gradientUnits="userSpaceOnUse">
<stop stop-color="#C4A0F6"/>
<stop offset="1" stop-color="#877EFA"/>
</linearGradient>
<linearGradient id="paint20_linear_501_2292" x1="593.362" y1="330.738" x2="606.213" y2="338.107" gradientUnits="userSpaceOnUse">
<stop stop-color="#C4A0F6"/>
<stop offset="1" stop-color="#877EFA"/>
</linearGradient>
<linearGradient id="paint21_linear_501_2292" x1="574.292" y1="530.764" x2="587.134" y2="538.128" gradientUnits="userSpaceOnUse">
<stop stop-color="#C4A0F6"/>
<stop offset="1" stop-color="#877EFA"/>
</linearGradient>
<linearGradient id="paint22_linear_501_2292" x1="982.793" y1="512.457" x2="995.636" y2="519.821" gradientUnits="userSpaceOnUse">
<stop stop-color="#C4A0F6"/>
<stop offset="1" stop-color="#877EFA"/>
</linearGradient>
<linearGradient id="paint23_linear_501_2292" x1="548.187" y1="353.981" x2="549.202" y2="353.981" gradientUnits="userSpaceOnUse">
<stop stop-color="#C4A0F6"/>
<stop offset="1" stop-color="#877EFA"/>
</linearGradient>
<linearGradient id="paint24_linear_501_2292" x1="543.187" y1="353.981" x2="554.202" y2="353.981" gradientUnits="userSpaceOnUse">
<stop stop-color="#C4A0F6"/>
<stop offset="1" stop-color="#877EFA"/>
</linearGradient>
<linearGradient id="paint25_linear_501_2292" x1="1097.81" y1="451.077" x2="1098.82" y2="451.077" gradientUnits="userSpaceOnUse">
<stop stop-color="#C4A0F6"/>
<stop offset="1" stop-color="#877EFA"/>
</linearGradient>
<linearGradient id="paint26_linear_501_2292" x1="1092.81" y1="451.077" x2="1103.82" y2="451.077" gradientUnits="userSpaceOnUse">
<stop stop-color="#C4A0F6"/>
<stop offset="1" stop-color="#877EFA"/>
</linearGradient>
<linearGradient id="paint27_linear_501_2292" x1="911.828" y1="516.17" x2="912.842" y2="516.17" gradientUnits="userSpaceOnUse">
<stop stop-color="#C4A0F6"/>
<stop offset="1" stop-color="#877EFA"/>
</linearGradient>
<linearGradient id="paint28_linear_501_2292" x1="906.827" y1="516.17" x2="917.843" y2="516.17" gradientUnits="userSpaceOnUse">
<stop stop-color="#C4A0F6"/>
<stop offset="1" stop-color="#877EFA"/>
</linearGradient>
<linearGradient id="paint29_linear_501_2292" x1="769.956" y1="143.556" x2="770.97" y2="143.556" gradientUnits="userSpaceOnUse">
<stop stop-color="#C4A0F6"/>
<stop offset="1" stop-color="#877EFA"/>
</linearGradient>
<linearGradient id="paint30_linear_501_2292" x1="764.956" y1="143.556" x2="775.971" y2="143.556" gradientUnits="userSpaceOnUse">
<stop stop-color="#C4A0F6"/>
<stop offset="1" stop-color="#877EFA"/>
</linearGradient>
<linearGradient id="paint31_linear_501_2292" x1="1132.47" y1="322.919" x2="1133.48" y2="322.919" gradientUnits="userSpaceOnUse">
<stop stop-color="#C4A0F6"/>
<stop offset="1" stop-color="#877EFA"/>
</linearGradient>
<linearGradient id="paint32_linear_501_2292" x1="1127.47" y1="322.919" x2="1138.48" y2="322.919" gradientUnits="userSpaceOnUse">
<stop stop-color="#C4A0F6"/>
<stop offset="1" stop-color="#877EFA"/>
</linearGradient>
<linearGradient id="paint33_linear_501_2292" x1="555.338" y1="171.325" x2="742.813" y2="171.325" gradientUnits="userSpaceOnUse">
<stop stop-color="#C4A0F6"/>
<stop offset="1" stop-color="#877EFA"/>
</linearGradient>
<linearGradient id="paint34_linear_501_2292" x1="555.338" y1="172.52" x2="654.284" y2="172.52" gradientUnits="userSpaceOnUse">
<stop stop-color="#C4A0F6"/>
<stop offset="1" stop-color="#877EFA"/>
</linearGradient>
<clipPath id="clip0_501_2292">
<rect width="691.11" height="416.835" fill="white" transform="translate(391.757 165.919)"/>
</clipPath>
<clipPath id="clip1_501_2292">
<rect width="630.15" height="448.516" fill="white" transform="translate(541.665 101.551)"/>
</clipPath>
</defs>
</svg>
