<svg width="32" height="32" viewBox="0 0 32 32" fill="none" xmlns="http://www.w3.org/2000/svg">
<g id="settings">
<g id="Icon">
<path fill-rule="evenodd" clip-rule="evenodd" d="M18.2351 5.75503C17.6651 3.41499 14.3349 3.41499 13.7649 5.75503C13.6798 6.10666 13.5129 6.43323 13.2777 6.70816C13.0426 6.98309 12.7458 7.19862 12.4117 7.33721C12.0775 7.47579 11.7153 7.53352 11.3546 7.50569C10.9938 7.47786 10.6448 7.36526 10.3358 7.17705C8.27776 5.92303 5.92268 8.27807 7.17672 10.3361C7.98675 11.6651 7.26823 13.3991 5.75618 13.7667C3.41461 14.3352 3.41461 17.6667 5.75618 18.2337C6.10791 18.3189 6.43454 18.486 6.70948 18.7213C6.98441 18.9567 7.19988 19.2536 7.33834 19.588C7.47679 19.9223 7.53432 20.2847 7.50624 20.6455C7.47815 21.0063 7.36525 21.3554 7.17672 21.6643C5.92268 23.7223 8.27776 26.0773 10.3358 24.8233C10.6447 24.6348 10.9938 24.5219 11.3546 24.4938C11.7154 24.4657 12.0778 24.5233 12.4122 24.6617C12.7465 24.8002 13.0435 25.0156 13.2788 25.2906C13.5141 25.5655 13.6812 25.8921 13.7664 26.2438C14.3349 28.5854 17.6666 28.5854 18.2336 26.2438C18.3191 25.8923 18.4863 25.5659 18.7217 25.2912C18.9571 25.0164 19.254 24.8011 19.5882 24.6627C19.9225 24.5243 20.2847 24.4667 20.6454 24.4946C21.0061 24.5225 21.3552 24.6351 21.6642 24.8233C23.7222 26.0773 26.0773 23.7223 24.8233 21.6643C24.6351 21.3553 24.5225 21.0063 24.4945 20.6455C24.4666 20.2848 24.5242 19.9226 24.6626 19.5884C24.801 19.2541 25.0164 18.9572 25.2911 18.7218C25.5659 18.4865 25.8923 18.3192 26.2438 18.2337C28.5854 17.6652 28.5854 14.3337 26.2438 13.7667C25.8921 13.6814 25.5655 13.5144 25.2905 13.279C25.0156 13.0437 24.8001 12.7468 24.6617 12.4124C24.5232 12.078 24.4657 11.7157 24.4938 11.3549C24.5218 10.9941 24.6347 10.645 24.8233 10.3361C26.0773 8.27807 23.7222 5.92303 21.6642 7.17705C21.3553 7.36557 21.0062 7.47848 20.6454 7.50656C20.2846 7.53464 19.9222 7.47712 19.5878 7.33866C19.2535 7.20021 18.9565 6.98474 18.7212 6.70981C18.4859 6.43488 18.3188 6.10825 18.2336 5.75653L18.2351 5.75503Z" stroke="#E8E8F4" stroke-width="2"/>
<path d="M18.6667 16C18.6667 17.4728 17.4728 18.6667 16 18.6667C14.5272 18.6667 13.3333 17.4728 13.3333 16C13.3333 14.5272 14.5272 13.3333 16 13.3333C17.4728 13.3333 18.6667 14.5272 18.6667 16Z" stroke="#E8E8F4" stroke-width="2"/>
</g>
</g>
</svg>
